<svg width="18" height="19" viewBox="0 0 18 19" fill="none" xmlns="http://www.w3.org/2000/svg">
<g clip-path="url(#clip0_888_26095)">
<path d="M6 9.22754H4.5C3.67275 9.22754 3 9.90029 3 10.7275V12.2275C3 13.0548 3.67275 13.7275 4.5 13.7275H6C6.82725 13.7275 7.5 13.0548 7.5 12.2275V10.7275C7.5 9.90029 6.82725 9.22754 6 9.22754ZM4.5 12.2275V10.7275H6V12.2275H4.5ZM14.25 1.72754H13.5V0.977539C13.5 0.563539 13.1648 0.227539 12.75 0.227539C12.3352 0.227539 12 0.563539 12 0.977539V1.72754H6V0.977539C6 0.563539 5.66475 0.227539 5.25 0.227539C4.83525 0.227539 4.5 0.563539 4.5 0.977539V1.72754H3.75C1.68225 1.72754 0 3.40979 0 5.47754V14.4775C0 16.5453 1.68225 18.2275 3.75 18.2275H14.25C16.3177 18.2275 18 16.5453 18 14.4775V5.47754C18 3.40979 16.3177 1.72754 14.25 1.72754ZM3.75 3.22754H14.25C15.4905 3.22754 16.5 4.23704 16.5 5.47754V6.22754H1.5V5.47754C1.5 4.23704 2.5095 3.22754 3.75 3.22754ZM14.25 16.7275H3.75C2.5095 16.7275 1.5 15.718 1.5 14.4775V7.72754H16.5V14.4775C16.5 15.718 15.4905 16.7275 14.25 16.7275Z" fill="#B4B6B9"/>
</g>
<defs>
<clipPath id="clip0_888_26095">
<rect width="18" height="18" fill="white" transform="translate(0 0.227539)"/>
</clipPath>
</defs>
</svg>
